<svg xmlns="http://www.w3.org/2000/svg" version="1.1" xmlns:xlink="http://www.w3.org/1999/xlink" xmlns:svgjs="http://svgjs.dev/svgjs" width="2000" height="328" viewBox="0 0 2000 328"><g transform="matrix(1,0,0,1,-1.2121212121207918,-2.192270672887048)"><svg viewBox="0 0 396 65" data-background-color="#010536" preserveAspectRatio="xMidYMid meet" height="328" width="2000" xmlns="http://www.w3.org/2000/svg" xmlns:xlink="http://www.w3.org/1999/xlink"><g id="tight-bounds" transform="matrix(1,0,0,1,0.23999999999992383,0.4344438833465176)"><svg viewBox="0 0 395.5199999999999 64.13111223330695" height="64.13111223330695" width="395.5199999999999"><g><svg viewBox="0 0 534.7535046108395 86.70696051110431" height="64.13111223330695" width="395.5199999999999"><g><rect width="7.780421075099141" height="86.70696051110431" x="111.08548909830809" y="0" fill="#fbfbf8" opacity="1" stroke-width="0" stroke="transparent" fill-opacity="1" class="rect-yte-0" data-fill-palette-color="primary" rx="1%" id="yte-0" data-palette-color="#fbfbf8"></rect></g><g transform="matrix(1,0,0,1,139.23350461083953,0.21568895649527775)"><svg viewBox="0 0 395.52 86.27558259811376" height="86.27558259811376" width="395.52"><g id="textblocktransform"><svg viewBox="0 0 395.52 86.27558259811376" height="86.27558259811376" width="395.52" id="textblock"><g><svg viewBox="0 0 395.52 86.27558259811376" height="86.27558259811376" width="395.52"><g transform="matrix(1,0,0,1,0,0)"><svg width="395.52" viewBox="1.4 -35.35 164.32999999999998 35.85" height="86.27558259811376" data-palette-color="#fbfbf8"><path d="M11.15 0.5L11.15 0.5Q8.45 0.5 6.25-0.85 4.05-2.2 2.73-4.48 1.4-6.75 1.4-9.55L1.4-9.55 1.4-25.4Q1.4-28.1 2.73-30.38 4.05-32.65 6.28-34 8.5-35.35 11.15-35.35L11.15-35.35Q13.9-35.35 16.13-34.02 18.35-32.7 19.65-30.45 20.95-28.2 20.95-25.4L20.95-25.4 20.95-23.1Q20.95-22.9 20.7-22.9L20.7-22.9 15.1-22.9Q14.9-22.9 14.9-23.1L14.9-23.1 14.9-25Q14.9-26.9 13.83-28.15 12.75-29.4 11.15-29.4L11.15-29.4Q9.7-29.4 8.58-28.2 7.45-27 7.45-25.4L7.45-25.4 7.45-9.55Q7.45-7.9 8.55-6.73 9.65-5.55 11.15-5.55L11.15-5.55Q12.75-5.55 13.83-6.7 14.9-7.85 14.9-9.55L14.9-9.55 14.9-12 11.4-12Q11.15-12 11.15-12.25L11.15-12.25 11.15-17.85Q11.15-18.1 11.4-18.1L11.4-18.1 20.75-18.1Q20.95-18.1 20.95-17.85L20.95-17.85 20.95-9.55Q20.95-6.75 19.63-4.48 18.3-2.2 16.1-0.85 13.9 0.5 11.15 0.5ZM30.4 0L24.75 0Q24.5 0 24.5-0.25L24.5-0.25 24.55-34.6Q24.55-34.8 24.75-34.8L24.75-34.8 30.35-34.8Q30.55-34.8 30.55-34.6L30.55-34.6 30.6-0.25Q30.6 0 30.4 0L30.4 0ZM45.65 0L40 0Q39.8 0 39.8-0.25L39.8-0.25 39.8-28.75 33.3-28.75Q33.05-28.75 33.05-29L33.05-29 33.1-34.6Q33.1-34.8 33.3-34.8L33.3-34.8 52.3-34.8Q52.55-34.8 52.55-34.6L52.55-34.6 52.55-29Q52.55-28.75 52.35-28.75L52.35-28.75 45.8-28.75 45.85-0.25Q45.85 0 45.65 0L45.65 0ZM70.89 0.5L70.89 0.5Q68.19 0.5 65.97-0.88 63.74-2.25 62.42-4.53 61.09-6.8 61.09-9.55L61.09-9.55 61.09-11.85Q61.09-12.1 61.34-12.1L61.34-12.1 66.94-12.1Q67.14-12.1 67.14-11.85L67.14-11.85 67.14-9.55Q67.14-7.9 68.24-6.73 69.34-5.55 70.89-5.55L70.89-5.55Q72.44-5.55 73.54-6.75 74.64-7.95 74.64-9.55L74.64-9.55Q74.64-11.4 72.24-12.75L72.24-12.75Q71.44-13.2 69.74-14.15 68.04-15.1 66.54-15.95L66.54-15.95Q63.79-17.55 62.47-19.98 61.14-22.4 61.14-25.45L61.14-25.45Q61.14-28.25 62.49-30.48 63.84-32.7 66.07-34 68.29-35.3 70.89-35.3L70.89-35.3Q73.54-35.3 75.77-33.98 77.99-32.65 79.32-30.43 80.64-28.2 80.64-25.45L80.64-25.45 80.64-21.35Q80.64-21.15 80.44-21.15L80.44-21.15 74.84-21.15Q74.64-21.15 74.64-21.35L74.64-21.35 74.59-25.45Q74.59-27.2 73.49-28.3 72.39-29.4 70.89-29.4L70.89-29.4Q69.34-29.4 68.24-28.23 67.14-27.05 67.14-25.45L67.14-25.45Q67.14-23.8 67.84-22.7 68.54-21.6 70.39-20.6L70.39-20.6Q70.64-20.45 71.37-20.08 72.09-19.7 72.94-19.23 73.79-18.75 74.47-18.4 75.14-18.05 75.29-17.95L75.29-17.95Q77.79-16.55 79.24-14.53 80.69-12.5 80.69-9.55L80.69-9.55Q80.69-6.7 79.37-4.42 78.04-2.15 75.82-0.83 73.59 0.5 70.89 0.5ZM94.59 0L88.94 0Q88.74 0 88.74-0.25L88.74-0.25 88.74-28.75 82.24-28.75Q81.99-28.75 81.99-29L81.99-29 82.04-34.6Q82.04-34.8 82.24-34.8L82.24-34.8 101.24-34.8Q101.49-34.8 101.49-34.6L101.49-34.6 101.49-29Q101.49-28.75 101.29-28.75L101.29-28.75 94.74-28.75 94.79-0.25Q94.79 0 94.59 0L94.59 0ZM100.44-0.25L100.44-0.25 106.64-34.6Q106.69-34.8 106.89-34.8L106.89-34.8 114.14-34.8Q114.34-34.8 114.39-34.6L114.39-34.6 120.34-0.25Q120.39 0 120.14 0L120.14 0 114.59 0Q114.39 0 114.34-0.25L114.34-0.25 113.79-3.9 106.99-3.9 106.44-0.25Q106.39 0 106.19 0L106.19 0 100.64 0Q100.44 0 100.44-0.25ZM110.24-23.3L107.99-9.25 112.79-9.25 110.74-23.3 110.44-25.15 110.24-23.3ZM129.33 0L123.68 0Q123.48 0 123.48-0.25L123.48-0.25 123.58-34.6Q123.58-34.8 123.78-34.8L123.78-34.8 133.88-34.8Q136.58-34.8 138.86-33.48 141.13-32.15 142.48-29.93 143.83-27.7 143.83-24.9L143.83-24.9Q143.83-23.05 143.28-21.58 142.73-20.1 141.98-19.07 141.23-18.05 140.63-17.55L140.63-17.55Q143.33-14.55 143.33-10.5L143.33-10.5 143.38-0.25Q143.38 0 143.13 0L143.13 0 137.48 0Q137.28 0 137.28-0.15L137.28-0.15 137.28-10.5Q137.28-12.3 136.01-13.63 134.73-14.95 132.88-14.95L132.88-14.95 129.58-14.95 129.53-0.25Q129.53 0 129.33 0L129.33 0ZM129.58-28.8L129.58-20.95 133.88-20.95Q135.43-20.95 136.63-22.1 137.83-23.25 137.83-24.9L137.83-24.9Q137.83-26.5 136.66-27.65 135.48-28.8 133.88-28.8L133.88-28.8 129.58-28.8ZM155.93 0.5L155.93 0.5Q153.23 0.5 151-0.88 148.78-2.25 147.46-4.53 146.13-6.8 146.13-9.55L146.13-9.55 146.13-11.85Q146.13-12.1 146.38-12.1L146.38-12.1 151.98-12.1Q152.18-12.1 152.18-11.85L152.18-11.85 152.18-9.55Q152.18-7.9 153.28-6.73 154.38-5.55 155.93-5.55L155.93-5.55Q157.48-5.55 158.58-6.75 159.68-7.95 159.68-9.55L159.68-9.55Q159.68-11.4 157.28-12.75L157.28-12.75Q156.48-13.2 154.78-14.15 153.08-15.1 151.58-15.95L151.58-15.95Q148.83-17.55 147.5-19.98 146.18-22.4 146.18-25.45L146.18-25.45Q146.18-28.25 147.53-30.48 148.88-32.7 151.11-34 153.33-35.3 155.93-35.3L155.93-35.3Q158.58-35.3 160.81-33.98 163.03-32.65 164.36-30.43 165.68-28.2 165.68-25.45L165.68-25.45 165.68-21.35Q165.68-21.15 165.48-21.15L165.48-21.15 159.88-21.15Q159.68-21.15 159.68-21.35L159.68-21.35 159.63-25.45Q159.63-27.2 158.53-28.3 157.43-29.4 155.93-29.4L155.93-29.4Q154.38-29.4 153.28-28.23 152.18-27.05 152.18-25.45L152.18-25.45Q152.18-23.8 152.88-22.7 153.58-21.6 155.43-20.6L155.43-20.6Q155.68-20.45 156.41-20.08 157.13-19.7 157.98-19.23 158.83-18.75 159.5-18.4 160.18-18.05 160.33-17.95L160.33-17.95Q162.83-16.55 164.28-14.53 165.73-12.5 165.73-9.55L165.73-9.55Q165.73-6.7 164.41-4.42 163.08-2.15 160.86-0.83 158.63 0.5 155.93 0.5Z" opacity="1" transform="matrix(1,0,0,1,0,0)" fill="#fbfbf8" class="wordmark-text-0" data-fill-palette-color="primary" id="text-0"></path></svg></g></svg></g></svg></g></svg></g><g transform="matrix(1,0,0,1,0,0.21568895649527775)"><svg viewBox="0 0 90.71789466087579 86.27558259811376" height="86.27558259811376" width="90.71789466087579"><g><svg xmlns="http://www.w3.org/2000/svg" xmlns:xlink="http://www.w3.org/1999/xlink" version="1.1" x="0" y="0" viewBox="2.5 4.826 95 90.34800000000001" enable-background="new 0 0 100 100" xml:space="preserve" height="86.27558259811376" width="90.71789466087579" class="icon-icon-0" data-fill-palette-color="accent" id="icon-0"><g fill="#ffff00" data-fill-palette-color="accent"><polygon points="50,4.826 64.682,34.567 97.5,39.336 73.752,62.485 79.36,95.174 50,79.741 20.646,95.174 26.252,62.485    2.5,39.336 35.323,34.567  " fill="#ffff00" data-fill-palette-color="accent"></polygon></g></svg></g></svg></g></svg></g><defs></defs></svg><rect width="395.5199999999999" height="64.13111223330695" fill="none" stroke="none" visibility="hidden"></rect></g></svg></g></svg>